<?xml version="1.0" standalone="no"?>
<!DOCTYPE svg PUBLIC "-//W3C//DTD SVG 20010904//EN"
 "http://www.w3.org/TR/2001/REC-SVG-20010904/DTD/svg10.dtd">
<svg version="1.0" xmlns="http://www.w3.org/2000/svg"
 width="512.000000pt" height="512.000000pt" viewBox="0 0 512.000000 512.000000"
 preserveAspectRatio="xMidYMid meet">
<metadata>
Created by potrace 1.16, written by Peter Selinger 2001-2019
</metadata>
<g transform="translate(0.000000,512.000000) scale(0.100000,-0.100000)"
fill="#000000" stroke="none">
<path d="M2330 5114 c-252 -30 -411 -65 -604 -131 -717 -245 -1293 -802 -1562
-1510 -113 -300 -163 -575 -164 -908 -1 -580 170 -1092 521 -1562 94 -126 356
-388 482 -482 381 -284 798 -453 1255 -506 106 -13 349 -15 1494 -15 l1368 0
0 215 0 215 -567 0 -566 0 59 42 c175 124 387 325 517 489 290 368 466 781
539 1264 20 137 17 560 -5 705 -41 267 -118 514 -237 755 -135 276 -271 466
-490 685 -217 218 -407 354 -685 490 -238 117 -486 196 -745 236 -101 15 -526
28 -610 18z m530 -450 c622 -89 1178 -456 1512 -999 211 -342 310 -696 310
-1105 0 -406 -96 -751 -304 -1099 -168 -279 -442 -553 -718 -718 -355 -212
-697 -307 -1105 -306 -476 0 -879 137 -1282 434 -112 83 -306 274 -391 386
-384 504 -528 1116 -407 1720 83 411 285 785 588 1086 478 477 1132 695 1797
601z"/>
<path d="M2393 4461 c-187 -51 -333 -173 -414 -346 -46 -100 -59 -161 -59
-278 0 -112 19 -196 64 -285 86 -171 233 -289 416 -337 83 -21 238 -21 321 0
179 47 333 172 412 336 57 118 71 188 65 326 -4 82 -11 125 -30 175 -72 192
-222 339 -408 400 -95 30 -271 35 -367 9z m223 -426 c89 -26 147 -102 148
-195 2 -139 -142 -244 -269 -195 -64 24 -99 57 -125 117 -55 129 37 273 186
287 6 1 33 -6 60 -14z"/>
<path d="M1239 3590 c-254 -40 -467 -243 -523 -497 -97 -439 276 -839 719
-773 265 39 474 230 535 490 17 70 17 219 1 290 -30 127 -116 266 -218 351
-55 46 -186 111 -256 128 -68 16 -192 22 -258 11z m189 -449 c160 -83 160
-289 0 -372 -86 -44 -197 -12 -255 75 -29 42 -33 57 -33 111 0 54 4 69 33 111
58 87 169 119 255 75z"/>
<path d="M3662 3589 c-271 -48 -480 -266 -522 -544 -30 -200 35 -392 184 -541
133 -133 263 -188 451 -189 125 0 217 23 315 78 419 236 442 834 42 1097 -134
88 -318 127 -470 99z m189 -444 c163 -72 174 -292 19 -371 -166 -85 -355 84
-284 254 43 105 168 160 265 117z"/>
<path d="M2490 2765 c-49 -15 -101 -60 -128 -109 -22 -41 -22 -151 0 -191 43
-80 108 -119 198 -119 73 0 109 14 158 66 108 109 56 309 -91 353 -61 18 -78
18 -137 0z"/>
<path d="M1725 2163 c-226 -35 -398 -160 -494 -356 -48 -100 -64 -173 -63
-297 1 -175 58 -306 187 -435 86 -87 170 -138 280 -171 83 -24 268 -25 350 0
396 119 581 560 388 929 -53 102 -166 213 -264 260 -41 20 -101 43 -134 52
-62 17 -197 27 -250 18z m198 -469 c134 -94 114 -296 -35 -359 -132 -54 -288
49 -288 190 0 159 192 260 323 169z"/>
<path d="M3175 2154 c-240 -51 -436 -247 -491 -490 -21 -99 -15 -252 15 -337
59 -168 175 -303 321 -376 189 -93 390 -93 576 -1 189 93 313 257 351 463 25
138 7 257 -60 397 -81 172 -261 309 -450 345 -96 18 -170 18 -262 -1z m220
-443 c70 -31 125 -113 125 -186 0 -42 -22 -97 -53 -132 -127 -144 -360 -59
-360 132 0 149 153 248 288 186z"/>
</g>
</svg>
