<?xml version="1.0" standalone="no"?>
<!DOCTYPE svg PUBLIC "-//W3C//DTD SVG 20010904//EN"
 "http://www.w3.org/TR/2001/REC-SVG-20010904/DTD/svg10.dtd">
<svg version="1.0" xmlns="http://www.w3.org/2000/svg"
 width="512.000000pt" height="512.000000pt" viewBox="0 0 512.000000 512.000000"
 preserveAspectRatio="xMidYMid meet">
<metadata>
Created by potrace 1.16, written by Peter Selinger 2001-2019
</metadata>
<g transform="translate(0.000000,512.000000) scale(0.100000,-0.100000)"
fill="#000000" stroke="none">
<path d="M66 4681 c-15 -10 -37 -32 -47 -47 -18 -28 -19 -87 -19 -2070 l0
-2041 23 -34 c12 -19 38 -42 57 -51 33 -17 172 -18 2480 -18 2308 0 2447 1
2480 18 19 9 45 32 57 51 l23 34 0 2041 c0 1983 -1 2042 -19 2070 -10 15 -32
37 -47 47 -28 18 -96 19 -2494 19 -2398 0 -2466 -1 -2494 -19z m744 -411 l0
-130 -255 0 -255 0 0 130 0 130 255 0 255 0 0 -130z m800 0 l0 -130 -245 0
-245 0 0 130 0 130 245 0 245 0 0 -130z m800 0 l0 -130 -245 0 -245 0 0 130 0
130 245 0 245 0 0 -130z m810 0 l0 -130 -250 0 -250 0 0 130 0 130 250 0 250
0 0 -130z m800 0 l0 -130 -245 0 -245 0 0 130 0 130 245 0 245 0 0 -130z m800
0 l0 -130 -245 0 -245 0 0 130 0 130 245 0 245 0 0 -130z m0 -1710 l0 -1270
-2260 0 -2260 0 0 1270 0 1270 2260 0 2260 0 0 -1270z m-4010 -1705 l0 -125
-255 0 -255 0 0 125 0 125 255 0 255 0 0 -125z m800 0 l0 -125 -245 0 -245 0
0 125 0 125 245 0 245 0 0 -125z m800 0 l0 -125 -245 0 -245 0 0 125 0 125
245 0 245 0 0 -125z m810 0 l0 -125 -250 0 -250 0 0 125 0 125 250 0 250 0 0
-125z m800 0 l0 -125 -245 0 -245 0 0 125 0 125 245 0 245 0 0 -125z m800 0
l0 -125 -245 0 -245 0 0 125 0 125 245 0 245 0 0 -125z"/>
<path d="M2095 3260 c-80 -12 -145 -66 -165 -138 -15 -55 -14 -1078 2 -1123
18 -54 48 -87 102 -114 53 -26 100 -31 154 -16 58 17 914 520 954 561 44 46
63 102 54 163 -14 92 -24 100 -517 386 -250 145 -458 267 -463 269 -21 11 -83
17 -121 12z m447 -562 c125 -73 224 -136 220 -139 -8 -9 -523 -309 -528 -309
-2 0 -4 142 -4 316 l0 315 43 -25 c23 -14 144 -85 269 -158z"/>
</g>
</svg>
