<?xml version="1.0" standalone="no"?>
<!DOCTYPE svg PUBLIC "-//W3C//DTD SVG 20010904//EN"
 "http://www.w3.org/TR/2001/REC-SVG-20010904/DTD/svg10.dtd">
<svg version="1.0" xmlns="http://www.w3.org/2000/svg"
 width="512.000000pt" height="512.000000pt" viewBox="0 0 512.000000 512.000000"
 preserveAspectRatio="xMidYMid meet">
<metadata>
Created by potrace 1.16, written by Peter Selinger 2001-2019
</metadata>
<g transform="translate(0.000000,512.000000) scale(0.100000,-0.100000)"
fill="#000000" stroke="none">
<path d="M1423 4995 c-120 -33 -206 -95 -309 -223 -69 -87 -124 -130 -203
-158 -180 -63 -289 -147 -354 -271 -46 -90 -55 -126 -66 -274 -10 -143 -20
-174 -108 -311 l-57 -88 -56 0 c-160 0 -270 -106 -270 -260 0 -130 81 -232
203 -255 20 -4 37 -10 37 -14 0 -19 191 -1730 195 -1749 8 -32 64 -57 101 -45
64 21 66 -22 -35 894 -50 458 -94 851 -97 872 l-6 37 206 0 205 0 6 -32 c3
-18 73 -647 155 -1398 83 -751 153 -1382 156 -1402 l6 -38 -187 0 -186 0 -24
26 c-14 15 -25 34 -25 43 0 9 -20 189 -44 400 -43 383 -43 384 -70 408 -34 28
-65 29 -100 2 -21 -16 -26 -29 -26 -62 0 -88 81 -784 97 -826 20 -56 73 -114
127 -140 l42 -21 2172 0 c2159 0 2172 0 2192 20 31 31 27 93 -6 119 -26 21
-36 21 -523 21 l-496 0 96 53 c488 269 812 708 921 1249 20 99 23 142 23 348
0 185 -4 253 -18 322 -78 384 -235 685 -497 948 -136 137 -230 210 -270 210
-43 0 -61 -10 -75 -42 -20 -50 -8 -75 69 -135 104 -82 251 -236 329 -344 128
-178 234 -425 284 -659 28 -133 26 -488 -5 -626 -128 -587 -541 -1054 -1093
-1238 -194 -65 -290 -80 -514 -80 -231 -1 -329 13 -517 74 -261 86 -453 204
-654 405 -189 188 -308 374 -394 615 -280 784 74 1652 825 2024 432 214 909
232 1355 50 46 -19 96 -34 110 -34 53 0 87 70 59 122 -30 56 -390 168 -594
184 l-81 7 -47 71 c-64 98 -77 142 -87 286 -20 281 -120 418 -379 519 -133 51
-167 76 -252 182 -77 97 -119 134 -194 172 -133 66 -251 74 -432 27 -63 -16
-129 -30 -147 -30 -17 0 -83 13 -146 30 -129 33 -239 38 -327 15z m286 -172
c132 -37 250 -37 378 0 206 60 323 21 467 -157 88 -110 155 -158 292 -212 53
-20 117 -51 142 -69 96 -65 152 -187 152 -330 0 -94 22 -189 59 -263 l31 -61
-33 -5 c-17 -3 -61 -8 -97 -11 -36 -3 -108 -15 -160 -26 -91 -18 -139 -19
-1257 -17 l-1162 3 43 66 c58 91 76 153 86 299 10 140 18 173 54 235 45 77
116 130 233 175 128 49 199 95 261 168 91 107 146 163 179 183 89 55 189 62
332 22z m730 -1317 c-2 -2 -35 -23 -74 -46 -38 -24 -102 -67 -141 -96 l-72
-54 -956 0 c-1029 0 -998 -1 -1026 49 -13 25 -13 77 0 101 27 51 -16 49 1169
50 607 0 1102 -2 1100 -4z m-930 -751 l43 -396 -20 -127 c-29 -178 -35 -307
-22 -456 18 -213 70 -420 147 -586 34 -74 35 -82 79 -479 24 -222 44 -410 44
-417 0 -11 -45 -14 -245 -14 -135 0 -245 2 -245 4 0 14 -311 2816 -315 2839
l-4 27 247 0 248 0 43 -395z m459 378 c-108 -127 -180 -231 -247 -353 -23 -44
-42 -68 -45 -60 -4 14 -46 392 -46 418 0 9 42 12 177 12 167 0 175 -1 161 -17z
m261 -2663 c57 -44 149 -104 205 -134 l101 -56 -295 0 -296 0 -23 213 c-12
116 -25 232 -28 257 l-6 44 119 -123 c65 -68 165 -158 223 -201z"/>
<path d="M2003 4660 c-62 -13 -117 -44 -157 -91 -67 -79 -69 -153 -4 -180 42
-17 75 -3 113 51 56 79 138 85 194 14 21 -26 22 -36 17 -95 -6 -57 -4 -69 15
-93 18 -23 28 -27 62 -24 59 4 81 38 85 132 5 91 -21 158 -83 215 -69 64 -154
88 -242 71z"/>
<path d="M1138 4386 c-123 -34 -198 -134 -198 -264 0 -110 41 -182 103 -182
23 0 41 8 56 24 24 26 24 28 5 140 -9 55 16 100 68 121 52 20 97 7 136 -41 40
-48 90 -56 126 -21 38 38 35 83 -10 136 -68 79 -186 115 -286 87z"/>
<path d="M1760 4147 c-61 -17 -112 -50 -144 -92 -48 -63 -62 -116 -58 -218 2
-48 39 -87 82 -87 19 0 40 9 55 25 21 20 25 34 25 80 0 70 19 107 65 130 63
29 121 3 159 -74 14 -27 32 -51 41 -55 33 -12 66 -5 90 19 29 28 32 66 10 118
-50 119 -199 190 -325 154z"/>
<path d="M3191 3364 c-173 -46 -323 -206 -360 -382 -71 -342 221 -654 565
-603 410 61 578 562 285 851 -74 73 -139 112 -226 135 -73 19 -192 18 -264 -1z
m282 -177 c67 -33 130 -100 165 -175 38 -80 38 -192 0 -274 -49 -105 -141
-175 -261 -199 -158 -32 -335 83 -383 249 -50 170 55 361 229 418 67 22 184
13 250 -19z"/>
<path d="M2325 2709 c-264 -44 -452 -298 -415 -561 35 -249 221 -422 466 -436
154 -8 283 38 384 138 103 101 150 216 150 365 0 196 -108 368 -282 450 -103
48 -196 62 -303 44z m156 -163 c107 -25 198 -98 243 -195 17 -37 21 -65 21
-141 0 -84 -3 -101 -28 -148 -37 -70 -97 -128 -166 -161 -47 -22 -70 -26 -146
-26 -84 0 -95 2 -153 34 -250 136 -245 482 8 611 75 38 139 46 221 26z"/>
<path d="M4150 2709 c-180 -30 -340 -176 -394 -358 -23 -78 -21 -213 4 -294
50 -161 197 -299 360 -336 59 -14 185 -14 233 0 65 18 82 98 30 139 -21 16
-35 18 -111 13 -103 -6 -172 15 -250 76 -107 85 -152 252 -102 383 56 149 224
247 375 219 118 -22 224 -110 265 -219 30 -80 25 -194 -13 -274 -15 -31 -27
-66 -27 -78 0 -33 44 -70 84 -70 42 0 74 35 108 117 20 50 23 75 23 189 l0
131 -42 85 c-72 144 -196 241 -351 274 -75 15 -111 16 -192 3z"/>
<path d="M3217 2196 c-219 -78 -264 -372 -79 -513 55 -42 109 -56 197 -51 82
5 134 27 188 81 58 58 81 117 81 207 0 88 -22 140 -87 208 -71 73 -202 103
-300 68z m164 -169 c19 -12 42 -40 53 -61 16 -32 17 -44 7 -76 -16 -52 -39
-78 -85 -94 -69 -24 -141 11 -165 81 -17 47 -10 81 26 123 46 55 107 65 164
27z"/>
<path d="M2651 1629 c-24 -5 -71 -21 -105 -37 -182 -86 -290 -256 -290 -457 0
-386 403 -622 752 -441 17 9 60 43 95 76 105 97 157 220 157 365 0 139 -45
250 -142 351 -121 126 -290 178 -467 143z m253 -183 c71 -35 148 -119 175
-191 43 -115 19 -249 -61 -340 -170 -194 -461 -152 -571 82 -85 183 9 395 206
465 74 27 177 20 251 -16z"/>
<path d="M3782 1630 c-156 -33 -301 -157 -363 -311 -27 -69 -37 -223 -19 -300
33 -139 140 -274 266 -335 280 -135 608 3 704 296 30 88 25 255 -9 343 -49
124 -166 237 -298 287 -66 25 -210 35 -281 20z m250 -183 c72 -33 134 -96 170
-173 28 -60 30 -71 26 -152 -6 -109 -33 -167 -113 -240 -42 -39 -72 -57 -122
-72 -83 -25 -124 -25 -209 1 -57 18 -77 31 -129 82 -83 83 -109 149 -103 262
4 60 11 92 30 130 26 50 103 131 149 155 86 47 210 49 301 7z"/>
</g>
</svg>
